<svg version="1.1" xmlns="http://www.w3.org/2000/svg" viewBox="0 0 250 250"><desc>Created with Snap</desc><defs></defs><g transform="matrix(0.0396,0,0,0.0396,70.9579,122.0531)"><g transform="matrix(14.3596,0,0,14.3596,-1505.9122,-2797.4321)">
<g id="gSl5tcuzpiah">
	<g>
		<path d="M361.85498,132.95007l-21.40002-73.41016l-73.41003-21.3999l-66.54004-36.5l-0.5-0.28003l-67.04993,36.78003
			l-73.41003,21.3999l-21.3999,73.41016L1.63501,199.49011l-0.27002,0.51001l36.78003,67.03979l21.3999,73.42017l73.41003,21.3999
			l66.53992,36.5l0.51001,0.28003l67.04004-36.78003l73.41003-21.3999l21.40002-73.42017l36.51001-66.53979l0.27002-0.5
			L361.85498,132.95007z M367.20496,147.07019l17.91003,32.65991l-4.81006,16.51001l-13.71997-47.05005L367.20496,147.07019z
			 M43.21484,217.17004l-8.70996,29.88013l-13.70996-47.05005l13.70996-47.05005l8.70996,29.87988l-9.13989,16.66016
			l-0.28003,0.51001L43.21484,217.17004z M36.19495,200.00012l7.85999-14.31006l4.16992,14.31006l-4.17993,14.30981
			L36.19495,200.00012z M309.20496,96.10999l12.0199,6.59009l9.53003,32.67993L309.20496,96.10999z M307.32495,92.67004
			l-7.17004-13.06006l15.67004,4.56006l4.57007,15.67017L307.32495,92.67004z M317.5249,82.4801l-18.80005-5.47998
			l-14.96997-27.29004l42.95996,23.57007l23.58008,42.96997l-27.29004-14.97998L317.5249,82.4801z M303.88501,90.78992
			L264.625,69.25012l32.66992,9.52002L303.88501,90.78992z M203.76489,49.30994l13.16003-3.82983l29.83997,16.36987
			L203.76489,49.30994z M200.00488,48.22009l-14.31995-4.16992l14.31995-7.8501l14.31006,7.8501L200.00488,48.22009z
			 M200.50488,34.07019l-0.5-0.27002l-17.16992,9.40991l-29.89001-8.70996l47.05994-13.71021l47.05005,13.71021l-29.89001,8.70996
			L200.50488,34.07019z M183.07495,45.4801l13.15991,3.82983l-43,12.54004L183.07495,45.4801z M96.11499,90.78992l6.58997-12.01978
			l32.67004-9.52002L96.11499,90.78992z M92.67493,92.67004l-13.06995,7.17017l4.56995-15.67017l15.67004-4.56006L92.67493,92.67004
			z M101.2749,77.00012L82.47485,82.4801l-5.47998,18.79004l-27.28992,14.97998l23.57996-42.96997l42.95996-23.57007
			L101.2749,77.00012z M78.7749,102.70007l12.02002-6.59009L69.25488,135.37L78.7749,102.70007z M45.48486,183.07996
			l16.37012-29.83984l-12.54004,43L45.48486,183.07996z M49.31494,203.76013l12.54004,43l-16.37012-29.84009L49.31494,203.76013z
			 M90.79492,303.89001l-12.02002-6.6001L69.24487,264.62L90.79492,303.89001z M92.67493,307.32019l7.55994,13.77979
			l-15.84985-4.56006l-4.78003-16.38989L92.67493,307.32019z M82.5249,317.68005l0.16003,0.56006l18.96997,5.45996
			l14.58997,26.58984l-42.95996-23.56982l-23.57996-42.96997l27.28992,14.96997L82.5249,317.68005z M96.11499,309.21008
			l41.02002,22.5l-34.05005-9.79004L96.11499,309.21008z M195.85498,350.78992l-12.78003,3.73022l-28.34009-15.56006
			L195.85498,350.78992z M199.63501,351.88l14.48999,4.17017l-14.12012,7.75l-14.31995-7.8501L199.63501,351.88z
			 M199.49487,365.92004l0.51001,0.28003l16.98999-9.32007l30,8.63013l-46.98999,13.69995l-47.05994-13.71997l29.89001-8.70996
			L199.49487,365.92004z M216.74487,354.60999l-13.32996-3.82983l43.34998-12.63013L216.74487,354.60999z M303.88501,309.21008
			l-6.59009,12.01001l-32.66992,9.53003L303.88501,309.21008z M307.32495,307.32019l13.07007-7.17017l-4.57007,15.67017
			l-15.67004,4.56982L307.32495,307.32019z M298.72485,323.00012l18.80005-5.47998l5.47998-18.80005l27.29004-14.96997
			l-23.58008,42.96997l-42.95996,23.56982L298.72485,323.00012z M321.22485,297.28992l-12.0199,6.6001L330.74487,264.62
			L321.22485,297.28992z M338.14502,153.24011l16.36987,29.83984l-3.82996,13.16016L338.14502,153.24011z M350.68494,203.76013
			l3.82996,13.15991l-16.36987,29.84009L350.68494,203.76013z M351.7749,200.00012l4.17004-14.31006l7.85999,14.31006
			l-7.85999,14.30981L351.7749,200.00012z M365.92493,200.50012l0.28003-0.5l-9.42004-17.17017l8.70996-29.87988l13.71008,47.05005
			l-13.71008,47.05005l-8.70996-29.88013L365.92493,200.50012z M365.7749,144.47009l-0.28003,0.94995l-0.91992-3.13013
			L365.7749,144.47009z M364.39502,149.19006l-9.04004,31.03003l-19.93005-36.32007L323.83496,104.13l28.33997,15.55005
			l7.72998,14.08008L364.39502,149.19006z M357.18494,124.43005l-1.56995-2.87012l0.86987,0.49023L357.18494,124.43005z
			 M355.65491,119.19006l-1.93005-1.06006l-23.56995-42.96997l15.07996,8.28003L355.65491,119.19006z M338.76489,61.24011
			l5.63013,19.33984l-16.13013-8.84985l-8.83997-16.13013L338.76489,61.24011z M316.56494,54.76013l8.27002,15.08008
			l-42.96997-23.57007l-1.05005-1.92993L316.56494,54.76013z M277.95496,43.51013l0.47998,0.87988l-2.87-1.56982L277.95496,43.51013
			z M280.31494,47.82019l15.55005,28.33984l-39.77002-11.58984L219.7749,44.65002l31.04004-9.05005l15.41992,4.49023
			L280.31494,47.82019z M255.53491,34.22009l2.17004,1.19995l-3.13-0.91992L255.53491,34.22009z M200.00488,3.76013
			l52.92004,29.02979l-2.10999,0.62012l-68.47998-19.95996L200.00488,3.76013z M179.72485,14.88l16.52002,4.81006
			l-53.94995,15.72998L179.72485,14.88z M122.04492,43.51013l2.39001-0.68994l-2.87,1.56982L122.04492,43.51013z
			 M133.76489,40.09021l15.42004-4.49023l31.03992,9.05005l-36.31995,19.92017l-39.7699,11.58984l15.54993-28.33984
			L133.76489,40.09021z M119.19495,44.34021l-1.05994,1.92993L75.16492,69.84021l8.27002-15.07007L119.19495,44.34021z
			 M61.23486,61.24011l19.34009-5.64014L71.73486,71.7301l-16.12988,8.84985L61.23486,61.24011z M54.76489,83.43005
			l15.08008-8.27002L46.2749,118.13l-1.92993,1.06006L54.76489,83.43005z M43.51489,122.05017l0.87012-0.47998l-1.57007,2.85986
			L43.51489,122.05017z M40.09497,133.76013l7.72998-14.08008L76.16492,104.13l-11.58997,39.77002l-19.92993,36.32007
			l-9.04004-31.03003L40.09497,133.76013z M35.42493,142.28992l-0.92004,3.14014l-0.28003-0.95996L35.42493,142.28992z
			 M32.79492,147.07996l0.62,2.11011l-13.71997,47.05005l-4.80994-16.51001L32.79492,147.07996z M3.76489,200.00012
			l9.69006-17.65991l5.14001,17.65991l-5.14001,17.65991L3.76489,200.00012z M32.79492,252.92004l-17.90991-32.6499
			l4.80994-16.51001l13.71997,47.0498L32.79492,252.92004z M34.22485,255.53015l0.28003-0.95996l0.92004,3.13989L34.22485,255.53015
			z M35.60498,250.80994l9.04004-31.02979l19.92993,36.31006l11.58997,39.76978l-28.33997-15.55005l-7.72998-14.07983
			L35.60498,250.80994z M42.81494,275.57019l1.57007,2.85986l-0.87012-0.47998L42.81494,275.57019z M44.34497,280.80994
			l1.92993,1.05005l23.57007,42.96997l-15.08008-8.27002L44.34497,280.80994z M61.23486,338.76013l-5.62988-19.34009
			l16.12988,8.8501l8.84009,16.12988L61.23486,338.76013z M83.43494,345.2301l-8.27002-15.08008l42.97009,23.57007l1.05994,1.92993
			L83.43494,345.2301z M122.04492,356.4801l-0.47998-0.87012l2.87,1.57007L122.04492,356.4801z M119.68494,352.17004
			l-15.17004-27.6499l41.02002,11.80005l34.68994,19.02979l-31.03992,9.04004l-15.42004-4.48999L119.68494,352.17004z
			 M144.46484,365.77014l-2.16992-1.19019l3.13,0.91016L144.46484,365.77014z M147.07495,367.20007l2.10999-0.60986
			l47.05994,13.70996l-16.52002,4.80981L147.07495,367.20007z M200.00488,396.24011l-17.66992-9.68994l17.66992-5.15015
			l17.66003,5.15015L200.00488,396.24011z M220.2749,385.10999l-16.51001-4.80981l47.02002-13.7002l2.13,0.61011L220.2749,385.10999
			z M255.5249,365.77014l-0.95996-0.28003l3.14001-0.91016L255.5249,365.77014z M277.95496,356.4801l-2.39001,0.69995l2.87-1.57007
			L277.95496,356.4801z M266.23486,359.90002l-15.45996,4.51001l-31.15991-8.96997l36.47998-20.02002l39.77002-11.59009
			l-15.55005,28.34009L266.23486,359.90002z M280.81494,355.65002l1.05005-1.92993l42.96997-23.57007l-8.27002,15.08008
			L280.81494,355.65002z M338.76489,338.76013l-19.33997,5.63989l8.83997-16.12988l16.13013-8.8501L338.76489,338.76013z
			 M345.23486,316.55994l-15.07996,8.27002l23.56995-42.96997l1.93005-1.05005L345.23486,316.55994z M356.48486,277.95007
			l-0.86987,0.47998l1.56995-2.85986L356.48486,277.95007z M359.90491,266.2301l-7.72998,14.07983l-28.33997,15.55005
			l11.58997-39.76978l19.93005-36.31006l9.04004,31.02979L359.90491,266.2301z M364.57495,257.71008l0.91992-3.13989
			l0.28003,0.95996L364.57495,257.71008z M367.20496,252.92004l-0.62-2.11011l13.71997-47.0498l4.81006,16.51001
			L367.20496,252.92004z M386.54492,217.66003l-5.14001-17.65991l5.14001-17.67017l9.68994,17.67017L386.54492,217.66003z" fill="#5ca4a9" style=""></path>
	</g>
</g>


<desc>Created with Snap</desc><defs></defs></g><g><g transform="matrix(1.024,0,0,-1.024,0,0)"><path d="M100 0L245 680Q178 652 141 596Q105 540 105 461Q105 424 112 409Q119 395 119 393Q65 393 38 415Q12 438 12 490Q12 554 64 614Q117 675 199 712Q281 750 363 750Q377 750 403 748L339 450L486 450L550 748L694 748L535 0L391 0L471 376L324 376L244 0L100 0ZM808 -6Q734 -6 693 32Q652 71 652 153Q652 222 679 305Q706 388 767 448Q828 509 922 509Q1032 509 1032 413Q1032 357 1000 310Q968 263 915 234Q862 206 802 202Q800 172 800 162Q800 113 817 95Q834 78 872 78Q926 78 964 103Q1003 128 1049 179L1083 179Q972 -6 808 -6ZM810 250Q847 252 880 276Q914 300 934 337Q955 374 955 415Q955 456 930 456Q894 456 859 393Q825 330 810 250ZM1169 -6Q1112 -6 1074 33Q1036 72 1036 155Q1036 229 1065 310Q1095 392 1153 448Q1212 505 1293 505Q1334 505 1354 491Q1374 477 1374 454L1374 447L1385 500L1529 500L1457 160Q1453 145 1453 128Q1453 85 1494 85Q1522 85 1542 111Q1563 137 1575 179L1617 179Q1580 71 1525 32Q1471 -6 1416 -6Q1374 -6 1348 17Q1323 41 1318 86Q1289 45 1253 19Q1218 -6 1169 -6ZM1234 91Q1259 91 1283 114Q1308 138 1317 179L1365 405Q1365 418 1355 430Q1345 443 1324 443Q1284 443 1252 396Q1220 350 1202 284Q1184 219 1184 169Q1184 119 1198 105Q1213 91 1234 91ZM1674 -6Q1626 -6 1596 24Q1567 54 1567 114Q1567 139 1575 179L1682 680L1830 700L1715 160Q1711 145 1711 128Q1711 108 1720 99Q1730 91 1752 91Q1781 91 1806 115Q1831 140 1842 179L1884 179Q1847 71 1789 32Q1731 -6 1674 -6ZM1941 -6Q1893 -6 1863 24Q1834 54 1834 114Q1834 139 1842 179L1902 460L1869 460L1877 500L1910 500L1940 638L2088 658L2054 500L2114 500L2106 460L2046 460L1982 160Q1978 145 1978 128Q1978 108 1987 99Q1997 91 2019 91Q2048 91 2073 115Q2098 140 2109 179L2151 179Q2114 71 2056 32Q1998 -6 1941 -6ZM2470 -6Q2409 -6 2380 26Q2352 59 2352 107Q2352 128 2357 154Q2362 181 2367 206Q2373 231 2375 238Q2383 273 2390 307Q2397 341 2397 362Q2397 413 2361 413Q2335 413 2315 387Q2295 362 2283 321L2215 0L2071 0L2216 680L2364 700L2310 448Q2360 504 2427 504Q2478 504 2508 476Q2538 448 2538 391Q2538 362 2531 326Q2524 291 2511 240Q2503 209 2496 179Q2490 150 2490 133Q2490 113 2499 102Q2508 91 2530 91Q2560 91 2578 112Q2596 134 2614 179L2656 179Q2619 69 2570 31Q2522 -6 2470 -6Z" fill="#343333" style=""></path></g></g><g transform="matrix(0.75,0,0,0.75,-128.1281,903.936)"><g transform="matrix(1.024,0,0,-1.024,0,0)"><path d="M449 608Q421 606 389 605Q358 604 320 603Q321 576 322 552Q323 529 324 505Q325 481 325 455Q326 429 326 397Q326 352 326 310Q326 269 325 227Q324 186 323 144Q322 102 320 57Q319 33 315 20Q312 7 306 0Q300 -7 292 -9Q284 -10 274 -10Q256 -10 243 2Q231 15 229 56Q227 92 226 132Q226 172 225 218Q224 264 224 317Q224 371 224 436Q224 491 224 532Q225 573 227 603L186 603Q144 603 114 604Q85 605 66 609Q47 614 38 624Q30 634 30 652Q30 661 32 668Q34 676 41 682Q48 689 60 693Q73 697 93 699Q112 700 127 701Q142 702 157 703Q172 704 188 704Q204 704 225 704Q284 704 336 703Q389 702 448 699Q472 697 485 693Q498 690 505 684Q512 678 513 670Q515 662 515 652Q515 634 502 622Q490 610 449 608ZM611 61Q607 96 606 146Q605 196 605 267Q605 337 605 380Q606 423 611 456Q616 497 626 509Q637 521 654 521Q666 521 675 519Q685 517 692 510Q700 504 704 492Q708 480 708 459Q708 455 709 451Q709 447 709 442Q710 438 710 432Q737 466 771 490Q806 514 850 514Q909 514 909 465Q909 447 901 435Q894 423 880 415Q867 408 849 404Q832 400 811 396Q779 390 751 373Q723 357 713 332Q713 313 713 304Q714 295 714 289Q715 283 715 276Q715 269 715 254Q715 203 713 158Q711 114 709 62Q708 38 703 25Q699 12 692 5Q686 -2 678 -4Q670 -5 662 -5Q634 -5 624 7Q615 20 611 61ZM1393 -4Q1377 -4 1367 1Q1358 7 1353 16Q1348 25 1346 37Q1344 50 1343 64Q1318 33 1278 12Q1239 -9 1178 -9Q1139 -9 1098 2Q1058 14 1025 42Q992 71 971 119Q950 167 950 240Q950 297 964 347Q978 397 1006 434Q1035 472 1078 494Q1121 516 1179 516Q1230 516 1270 497Q1310 479 1342 437Q1342 449 1343 461Q1344 474 1348 484Q1353 495 1363 501Q1373 508 1390 508Q1405 508 1418 496Q1431 484 1433 444Q1436 391 1437 349Q1439 307 1439 262Q1439 207 1438 161Q1437 115 1433 63Q1431 40 1427 26Q1424 13 1419 6Q1414 0 1407 -2Q1400 -4 1393 -4ZM1339 250Q1339 302 1323 335Q1308 368 1284 386Q1261 405 1234 412Q1207 419 1184 419Q1148 419 1122 406Q1097 393 1081 370Q1065 348 1057 317Q1050 287 1050 251Q1050 163 1088 121Q1127 79 1193 79Q1232 79 1259 92Q1287 106 1304 129Q1322 152 1330 183Q1339 215 1339 250ZM1784 510Q1813 510 1842 505Q1872 500 1896 491Q1920 482 1935 469Q1950 456 1950 439Q1950 395 1900 395Q1888 395 1877 398Q1867 402 1853 405Q1839 409 1818 412Q1797 416 1766 416Q1700 416 1664 371Q1628 326 1628 254Q1628 175 1664 127Q1701 79 1768 79Q1810 79 1836 86Q1862 93 1878 102Q1895 111 1905 118Q1916 125 1929 125Q1947 125 1957 117Q1968 110 1968 87Q1968 63 1949 45Q1931 27 1903 15Q1875 3 1842 -3Q1810 -9 1783 -9Q1662 -9 1593 58Q1524 125 1524 248Q1524 301 1540 348Q1557 396 1590 432Q1623 468 1671 489Q1720 510 1784 510ZM2057 53Q2055 75 2054 119Q2053 164 2052 222Q2051 281 2051 350Q2051 419 2051 491Q2051 576 2052 630Q2053 684 2058 715Q2063 746 2074 757Q2085 769 2106 769Q2124 769 2132 757Q2140 746 2144 707Q2146 683 2147 642Q2149 602 2149 554Q2150 506 2150 454Q2151 402 2151 355L2151 274L2373 475Q2384 485 2399 494Q2415 504 2432 504Q2452 504 2462 488Q2472 473 2472 453Q2472 442 2468 432Q2465 423 2454 415L2319 304L2483 66Q2492 54 2492 39Q2492 17 2478 6Q2464 -5 2442 -5Q2426 -5 2414 1Q2402 7 2391 24L2241 241L2150 166Q2149 129 2148 100Q2147 71 2145 54Q2141 19 2132 8Q2123 -3 2100 -3Q2077 -3 2068 8Q2060 19 2057 53ZM2812 184Q2777 184 2738 189Q2700 195 2655 213Q2664 152 2705 121Q2747 90 2825 90Q2853 90 2875 93Q2898 97 2915 101Q2932 106 2945 109Q2958 113 2969 113Q2983 113 2996 104Q3009 96 3009 76Q3009 51 2988 35Q2968 19 2938 9Q2909 0 2876 -4Q2843 -7 2818 -7Q2759 -7 2709 9Q2660 25 2624 57Q2588 90 2568 138Q2548 186 2548 250Q2548 312 2567 360Q2587 408 2621 441Q2655 474 2701 491Q2748 508 2802 508Q2844 508 2883 497Q2923 486 2953 464Q2984 442 3002 408Q3021 375 3021 330Q3021 290 3006 262Q2991 234 2963 217Q2936 200 2897 192Q2859 184 2812 184ZM2805 416Q2778 416 2753 409Q2728 403 2707 388Q2687 374 2673 350Q2659 327 2654 292Q2692 275 2728 268Q2764 262 2804 262Q2863 262 2891 276Q2920 291 2920 329Q2920 364 2893 390Q2867 416 2805 416ZM3121 61Q3117 96 3116 146Q3115 196 3115 267Q3115 337 3115 380Q3116 423 3121 456Q3126 497 3136 509Q3147 521 3164 521Q3176 521 3185 519Q3195 517 3202 510Q3210 504 3214 492Q3218 480 3218 459Q3218 455 3219 451Q3219 447 3219 442Q3220 438 3220 432Q3247 466 3281 490Q3316 514 3360 514Q3419 514 3419 465Q3419 447 3411 435Q3404 423 3390 415Q3377 408 3359 404Q3342 400 3321 396Q3289 390 3261 373Q3233 357 3223 332Q3223 313 3223 304Q3224 295 3224 289Q3225 283 3225 276Q3225 269 3225 254Q3225 203 3223 158Q3221 114 3219 62Q3218 38 3213 25Q3209 12 3202 5Q3196 -2 3188 -4Q3180 -5 3172 -5Q3144 -5 3134 7Q3125 20 3121 61ZM3669 522Q3690 522 3722 518Q3754 515 3783 505Q3812 496 3833 479Q3854 462 3854 436Q3854 421 3845 410Q3837 399 3819 399Q3806 399 3789 403Q3773 407 3753 412Q3734 418 3711 422Q3689 426 3664 426Q3622 426 3595 413Q3569 400 3569 372Q3569 356 3578 345Q3588 334 3604 325Q3621 317 3643 311Q3666 305 3691 299Q3722 291 3752 281Q3783 271 3807 253Q3831 236 3846 209Q3861 183 3861 144Q3861 70 3805 26Q3749 -17 3640 -17Q3616 -17 3583 -14Q3550 -10 3521 -1Q3492 9 3471 26Q3451 44 3451 73Q3451 93 3460 103Q3470 114 3484 114Q3495 114 3507 107Q3519 100 3536 92Q3553 84 3577 77Q3601 70 3636 70Q3649 70 3670 71Q3691 73 3711 80Q3732 87 3746 99Q3761 112 3761 135Q3761 153 3751 165Q3741 178 3724 187Q3707 196 3684 202Q3662 209 3637 216Q3608 224 3578 234Q3549 244 3525 260Q3501 276 3486 300Q3471 325 3471 361Q3471 395 3485 424Q3499 454 3525 476Q3551 498 3587 510Q3624 522 3669 522Z" fill="#343333" style=""></path></g></g></g></svg>